<svg xmlns="http://www.w3.org/2000/svg" xmlns:xlink="http://www.w3.org/1999/xlink" version="1.1" x="0px" y="0px" viewBox="0 0 95 118.75" enable-background="new 0 0 95 95" xml:space="preserve"><path d="M14.95,33.201c0,0,1.762-2.525,4.954-4.833c3.187-2.308,4.92-1.979,8.106-4.083c3.188-2.104,5.5-7.787,12.232-7.705  c6.729,0.082,8.9,6.329,11.829,8.611c2.93,2.277,3.346,1.774,5.256,3.938c1.913,2.164,4.584,8.927,10.602,9.003  c6.322,0.076,8.911-3.059,9.029-12.644c0.042-3.54,1.368-3.549,1.368-3.549s-0.966-4.4,4.031-4.339  c4.998,0.059,4.464,1.89,7.827,1.928c3.369,0.043,4.665,2.304,4.649,3.526c-0.014,1.225-0.42,1.016-1.032,1.006  c-0.612-0.006-1.933-0.227-2.545-0.232c-0.614-0.007-3.179,1.183-4.1,1.172c-0.912-0.009-1.424-0.018-1.424-0.018  s-0.215,1.02-0.234,2.75c-0.024,1.735-2.187,3.544-2.187,3.544S81.439,46.968,67.977,46.8c-3.301-0.04-4.179-0.104-6.067-0.122  c-2.541-0.032-4.766,0.853-4.597,1.697c0.208,1.02,1.787,11.168,1.787,11.168s1.515,1.344,1.797,3.187  c0.286,1.84-0.252,3.978-0.252,3.978s1.868,7.842,2.749,8.802c0.807,0.878,2.007,0.592,2.943,1.261  c1.122,0.799,1.332,1.651,0.944,1.646c-1.749-0.02-3.821,0.019-5.152,0c-1.324-0.014-4.14-11.337-4.14-11.337  s-1.718-1.347-2.208-3.087C55.291,62.25,55.812,60,55.812,60L51.25,49.375l-4.414,10.277c0,0,0.102,2.473-0.523,3.973  c-0.688,1.649-2.194,3.283-2.194,3.283s-2.066,5.579-2.224,6.811c-0.124,0.958,0.229,2.195,2.054,2.983  c1.107,0.478,1.042,1.719,0.642,1.714c-1.069-0.012-4.69,0.01-5.507,0c-0.816-0.01-0.705-0.967-0.586-1.983  c0.112-1.021,3.093-11.183,3.093-11.183s-0.624-1.754-0.09-3.688c0.533-1.929,1.688-2.812,1.688-2.812l2.563-9.353  c0,0-4.892,0.337-9.436-0.669c-6.318-1.403-9.672-4.161-9.672-4.161s-0.011,0.734-0.037,3.069c-0.03,2.333-1.38,4.357-1.38,4.357  s-0.99,5.905-0.512,8.46c0.478,2.554,4.213,11.326,5.814,13.59c1.604,2.262,3.28,1.921,3.878,3.15  c0.599,1.233-0.031,1.222-0.031,1.222s-4.336,0.011-4.845,0c-0.51-0.005-2.428-3.604-3.927-6.937  c-3.28-7.279-5.586-7.516-5.975-9.147c-0.389-1.64,0.5-2.034-0.061-6.327c-0.559-4.293-1.207-6.951-1.207-6.951  s-1.535,1.716-3.703,3.833c-2.169,2.115-5.11,5.105-5.523,5.539c-0.412,0.441-0.633,1.73-1.565,2.842  c-0.928,1.11-1.968,2.42-1.968,2.42s-0.643,2.646-1.086,5.7C4.072,72.443,3.48,74.68,5.767,75.32  c1.079,0.302,1.932,0.938,2.018,1.759c0.045,0.421-0.223,1.337-0.223,1.337H2.167c0,0-2.015-2.35-2.001-3.571  c0.015-1.222,1.169-4.271,1.613-7.019c0.443-2.75,0.957-8.693,1.306-9.438c0.349-0.745,1.845-0.996,3.015-2.142  c1.17-1.138,3.849-5.969,5.116-9.626c1.27-3.657,2.9-12.001,2.9-12.001s-1.633,0.083-2.275,2.729  c-0.647,2.646-1.732,8.163-2.879,10.074c-1.146,1.911-3.209,3.926-3.209,3.926s-0.38-2.312,0.354-4.004  c0.737-1.693,2.583-2.589,3.329-5.028c0.741-2.439,1.347-6.364,3.152-7.92C14.062,33.125,14.95,33.201,14.95,33.201z"/><text x="0" y="110" fill="#000000" font-size="5px" font-weight="bold" font-family="'Helvetica Neue', Helvetica, Arial-Unicode, Arial, Sans-serif">Created by Tatiana Belkina</text><text x="0" y="115" fill="#000000" font-size="5px" font-weight="bold" font-family="'Helvetica Neue', Helvetica, Arial-Unicode, Arial, Sans-serif">from the Noun Project</text></svg>